HIERARCHY
ROOT SpineBase
{
  OFFSET 0.000000 0.000000 0.000000
  CHANNELS 6 Xposition Yposition Zposition Zrotation Xrotation Yrotation
  JOINT SpineMid
  {
    OFFSET 0.000000 31.848673 0.000000
    CHANNELS 3 Zrotation Xrotation Yrotation
    JOINT SpineShoulder
    {
      OFFSET 0.102873 23.674213 -0.744912
      CHANNELS 3 Zrotation Xrotation Yrotation
      JOINT Neck
      {
        OFFSET 0.070164 7.839197 -0.577178
        CHANNELS 3 Zrotation Xrotation Yrotation
        JOINT Head
        {
          OFFSET -5.897378 12.889425 0.397058
          CHANNELS 3 Zrotation Xrotation Yrotation
          End Site
          {
            OFFSET 0 0 0
          }
        }
      }
      JOINT ShoulderLeft
      {
        OFFSET -15.955814 -4.672588 9.184159
        CHANNELS 3 Zrotation Xrotation Yrotation
        JOINT ElbowLeft
        {
          OFFSET -2.293645 -27.820791 0.850906
          CHANNELS 3 Zrotation Xrotation Yrotation
          JOINT WristLeft
          {
            OFFSET -0.402800 -23.439986 -3.230244
            CHANNELS 3 Zrotation Xrotation Yrotation
            JOINT HandLeft
            {
              OFFSET -1.069179 -8.066059 0.429949
              CHANNELS 3 Zrotation Xrotation Yrotation
              JOINT HandTipLeft
              {
                OFFSET 0.899126 -7.073761 -0.245718
                CHANNELS 3 Zrotation Xrotation Yrotation
                End Site
                {
                  OFFSET 0 0 0
                }
              }
              JOINT ThumbLeft
              {
                OFFSET -1.819865 -3.058622 -2.379950
                CHANNELS 3 Zrotation Xrotation Yrotation
                End Site
                {
                  OFFSET 0 0 0
                }
              }
            }
          }
        }
      }
      JOINT ShoulderRight
      {
        OFFSET 12.191169 -3.776025 -9.091444
        CHANNELS 3 Zrotation Xrotation Yrotation
        JOINT ElbowRight
        {
          OFFSET 8.781054 -26.443547 -5.348768
          CHANNELS 3 Zrotation Xrotation Yrotation
          JOINT WristRight
          {
            OFFSET 2.114755 -21.802047 -5.750969
            CHANNELS 3 Zrotation Xrotation Yrotation
            JOINT HandRight
            {
              OFFSET -0.383256 -5.880269 0.091973
              CHANNELS 3 Zrotation Xrotation Yrotation
              JOINT HandTipRight
              {
                OFFSET -0.342557 -8.418955 0.342156
                CHANNELS 3 Zrotation Xrotation Yrotation
                End Site
                {
                  OFFSET 0 0 0
                }
              }
              JOINT ThumbRight
              {
                OFFSET -3.794090 1.582294 0.782646
                CHANNELS 3 Zrotation Xrotation Yrotation
                End Site
                {
                  OFFSET 0 0 0
                }
              }
            }
          }
        }
      }
    }
  }
  JOINT HipLeft
  {
    OFFSET -6.318901 -0.041258 -0.184571
    CHANNELS 3 Zrotation Xrotation Yrotation
    JOINT KneeLeft
    {
      OFFSET 1.988649 -37.985193 3.905756
      CHANNELS 3 Zrotation Xrotation Yrotation
      JOINT AnkleLeft
      {
        OFFSET 5.327813 -35.844098 7.229052
        CHANNELS 3 Zrotation Xrotation Yrotation
        JOINT FootLeft
        {
          OFFSET -1.655436 -8.801270 -3.717951
          CHANNELS 3 Zrotation Xrotation Yrotation
          End Site
          {
            OFFSET 0 0 0
          }
        }
      }
    }
  }
  JOINT HipRight
  {
    OFFSET 6.654292 1.955249 -6.769228
    CHANNELS 3 Zrotation Xrotation Yrotation
    JOINT KneeRight
    {
      OFFSET 8.495607 -35.797214 -5.608568
      CHANNELS 3 Zrotation Xrotation Yrotation
      JOINT AnkleRight
      {
        OFFSET 6.186155 -36.810993 4.979055
        CHANNELS 3 Zrotation Xrotation Yrotation
        JOINT FootRight
        {
          OFFSET -1.103862 -7.960628 -6.295721
          CHANNELS 3 Zrotation Xrotation Yrotation
          End Site
          {
            OFFSET 0 0 0
          }
        }
      }
    }
  }
}
MOTION
Frames: 7
Frame Time: 0.033333
0.957494 100.864259 346.507557 52.870403 -53.863555 -35.254753 -1.032960 -0.259993 65.217675 -1.341392 1.544850 1.990056 25.771401 11.997065 -40.460721 0.000000 0.000000 0.000000 38.231983 13.170505 -29.745241 -59.410068 34.573317 3.230205 33.200398 -13.008033 14.654575 -33.375917 17.519990 -2.076805 0.000000 0.000000 0.000000 0.000000 0.000000 0.000000 36.094569 -35.394793 -58.719391 -50.113248 -4.833952 34.842816 1.942672 -49.467556 59.468967 74.509419 5.953308 -75.020086 0.000000 0.000000 0.000000 0.000000 0.000000 0.000000 -53.104839 -28.929575 62.827290 -2.959323 46.014124 10.958705 17.366664 70.842715 -17.847875 0.000000 0.000000 0.000000 -92.569920 7.657379 68.283269 -10.135247 -11.321683 -8.515073 64.996733 54.949882 -56.348777 0.000000 0.000000 0.000000
1.131658 99.981901 346.308253 52.652755 -53.947163 -34.548365 -1.075564 -0.328900 64.476063 -1.285224 1.516730 1.961640 26.608786 11.635803 -40.909248 0.000000 0.000000 0.000000 38.410308 2.075599 -22.737938 -71.823529 45.587717 12.734973 31.676229 -12.454487 13.321330 -28.951777 17.524540 -2.580799 0.000000 0.000000 0.000000 0.000000 0.000000 0.000000 35.141643 -36.005276 -58.468232 -50.091253 -3.556540 35.115605 4.365806 -51.161041 62.086786 63.024206 6.668744 -65.394077 0.000000 0.000000 0.000000 0.000000 0.000000 0.000000 -52.413096 -27.815339 62.581917 -2.664660 46.809997 10.802707 46.549348 69.228111 -42.498310 0.000000 0.000000 0.000000 -94.617325 8.288956 69.123293 -8.800149 -15.075329 -9.353980 64.006667 58.443896 -57.339725 0.000000 0.000000 0.000000
1.383160 101.178957 345.931106 54.302560 -54.214325 -29.609326 -1.233033 -0.177248 60.668194 -1.234329 1.641335 1.934273 26.482982 12.337807 -41.218026 0.000000 0.000000 0.000000 35.496534 -4.898999 -15.854716 -79.317802 54.660357 21.801275 28.733154 -12.740154 12.590757 -23.572786 17.856994 -3.240301 0.000000 0.000000 0.000000 0.000000 0.000000 0.000000 33.849080 -34.897437 -58.282993 -50.505998 -3.192958 35.145165 1.501495 -49.037108 57.546469 57.170481 10.699371 -57.897253 0.000000 0.000000 0.000000 0.000000 0.000000 0.000000 -55.720262 -23.942249 59.655833 -3.155903 45.289242 10.532050 62.993444 65.153676 -54.287146 0.000000 0.000000 0.000000 -94.448950 12.080186 68.738306 -10.293782 -14.992455 -9.722085 46.129098 59.907297 -39.861562 0.000000 0.000000 0.000000
2.015339 103.460322 345.638476 54.879053 -53.865982 -22.739854 -1.431871 0.130729 53.854570 -1.168016 1.808737 1.856767 27.525401 11.002387 -41.514765 0.000000 0.000000 0.000000 29.470922 -6.053317 -10.691130 -70.108810 60.376217 18.729784 18.449827 -9.071975 8.776306 -16.976791 13.206982 -2.721324 0.000000 0.000000 0.000000 0.000000 0.000000 0.000000 33.815155 -33.416276 -57.336186 -51.378540 -3.629374 34.861746 -12.423595 -31.044069 39.494492 48.920991 20.475368 -42.073913 0.000000 0.000000 0.000000 0.000000 0.000000 0.000000 -59.307580 -16.724302 55.263382 -5.071631 42.872814 10.573411 75.798275 58.163384 -59.835645 0.000000 0.000000 0.000000 -91.930030 17.569745 67.308104 -11.320688 -12.547981 -9.179181 7.742143 58.585848 -3.520410 0.000000 0.000000 0.000000
2.128037 107.138588 345.095178 55.095480 -52.696534 -15.646580 -1.453900 0.564815 46.038366 -1.120757 1.859114 1.825507 29.461670 9.279352 -41.769528 0.000000 0.000000 0.000000 21.078175 -5.661699 -5.475953 -55.188585 63.784239 11.337598 16.345055 -8.355205 8.279650 -15.405661 12.198841 -2.828348 0.000000 0.000000 0.000000 0.000000 0.000000 0.000000 34.877821 -31.420834 -56.046059 -53.808850 -5.546564 34.547181 -13.912175 -12.397584 28.014165 26.637599 14.828994 -18.686100 0.000000 0.000000 0.000000 0.000000 0.000000 0.000000 -62.261584 -8.913351 50.757910 -6.886012 38.778387 9.881774 83.660619 50.758326 -59.977668 0.000000 0.000000 0.000000 -88.676733 22.920306 64.516939 -11.239568 -10.658751 -8.368448 -8.843004 56.895402 11.889390 0.000000 0.000000 0.000000
2.173902 110.152263 344.418185 54.110580 -50.519347 -12.667223 -1.609059 0.653353 41.223456 -1.040040 1.877677 1.752852 29.386853 7.358217 -40.072402 0.000000 0.000000 0.000000 13.234039 -4.854706 -1.386875 -36.613165 61.886857 0.144964 8.964291 -2.359462 4.819155 -12.066551 2.357936 -1.620301 0.000000 0.000000 0.000000 0.000000 0.000000 0.000000 36.233964 -27.654409 -53.708667 -52.911695 -8.394331 32.958864 -21.390945 3.890276 22.344633 17.830981 5.637271 -6.671710 0.000000 0.000000 0.000000 0.000000 0.000000 0.000000 -63.704122 -5.598914 47.409297 -6.594883 35.510601 8.932249 87.175869 51.177899 -62.536562 0.000000 0.000000 0.000000 -84.118921 25.383314 60.496412 -11.420167 -8.224998 -7.385374 -3.060148 36.104427 8.039571 0.000000 0.000000 0.000000
1.273765 112.998409 343.493141 51.563441 -47.526102 -10.695201 -1.572054 0.536557 36.258030 -1.109076 2.011719 1.671762 29.955609 5.405447 -37.746378 0.000000 0.000000 0.000000 4.437991 0.089634 0.403964 -19.784077 51.127958 -8.036155 7.026672 0.142199 4.022828 -11.783690 0.186764 -1.712629 0.000000 0.000000 0.000000 0.000000 0.000000 0.000000 37.152275 -22.136654 -50.465906 -49.877817 -10.862279 29.996900 -25.378789 13.044390 20.126239 16.947739 0.384255 -2.590698 0.000000 0.000000 0.000000 0.000000 0.000000 0.000000 -61.945409 -1.479970 43.500029 -8.013325 32.592012 8.058626 83.239052 52.546659 -59.334926 0.000000 0.000000 0.000000 -78.363920 26.169580 55.387258 -7.004388 -6.307291 -5.284542 2.376844 8.809945 3.039986 0.000000 0.000000 0.000000
